Run_50003
nRows=4
nColumns=173

# SIMM Motion File Header:
name Run_50003
datacolumns 173
datarows 4
otherdata 1
range 2.81000000 2.84000000
endheader
time	pelvis_tilt	pelvis_list	pelvis_rotation	pelvis_tx	pelvis_ty	pelvis_tz	hip_flexion_r	hip_adduction_r	hip_rotation_r	knee_angle_r	ankle_angle_r	hip_flexion_l	hip_adduction_l	hip_rotation_l	knee_angle_l	ankle_angle_l	lumbar_extension	lumbar_bending	lumbar_rotation	arm_flex_r	arm_add_r	arm_rot_r	elbow_flex_r	pro_sup_r	arm_flex_l	arm_add_l	arm_rot_l	elbow_flex_l	pro_sup_l	subtalar_angle_r	mtp_angle_r	subtalar_angle_l	mtp_angle_l	wrist_flex_r	wrist_dev_r	wrist_flex_l	wrist_dev_l	LASI_tx	LASI_ty	LASI_tz	RASI_tx	RASI_ty	RASI_tz	LPSI_tx	LPSI_ty	LPSI_tz	RPSI_tx	RPSI_ty	RPSI_tz	RTH1_tx	RTH1_ty	RTH1_tz	RTH2_tx	RTH2_ty	RTH2_tz	RTH3_tx	RTH3_ty	RTH3_tz	LTH1_tx	LTH1_ty	LTH1_tz	LTH2_tx	LTH2_ty	LTH2_tz	LTH3_tx	LTH3_ty	LTH3_tz	RTB1_tx	RTB1_ty	RTB1_tz	RTB2_tx	RTB2_ty	RTB2_tz	RTB3_tx	RTB3_ty	RTB3_tz	RLMAL_tx	RLMAL_ty	RLMAL_tz	RMMAL_tx	RMMAL_ty	RMMAL_tz	LTB1_tx	LTB1_ty	LTB1_tz	LTB2_tx	LTB2_ty	LTB2_tz	LTB3_tx	LTB3_ty	LTB3_tz	RCAL_tx	RCAL_ty	RCAL_tz	RTOE_tx	RTOE_ty	RTOE_tz	RMT5_tx	RMT5_ty	RMT5_tz	LCAL_tx	LCAL_ty	LCAL_tz	LTOE_tx	LTOE_ty	LTOE_tz	LMT5_tx	LMT5_ty	LMT5_tz	LACR_tx	LACR_ty	LACR_tz	RACR_tx	RACR_ty	RACR_tz	CLAV_tx	CLAV_ty	CLAV_tz	C7_tx	C7_ty	C7_tz	LPSH_tx	LPSH_ty	LPSH_tz	RUA1_tx	RUA1_ty	RUA1_tz	RUA2_tx	RUA2_ty	RUA2_tz	RUA3_tx	RUA3_ty	RUA3_tz	RLEL_tx	RLEL_ty	RLEL_tz	RMEL_tx	RMEL_ty	RMEL_tz	LUA1_tx	LUA1_ty	LUA1_tz	LUA2_tx	LUA2_ty	LUA2_tz	LUA3_tx	LUA3_ty	LUA3_tz	LLEL_tx	LLEL_ty	LLEL_tz	LMEL_tx	LMEL_ty	LMEL_tz	RFAsuperior_tx	RFAsuperior_ty	RFAsuperior_tz	RFAradius_tx	RFAradius_ty	RFAradius_tz	RFAulna_tx	RFAulna_ty	RFAulna_tz	LFAsuperior_tx	LFAsuperior_ty	LFAsuperior_tz	LFAradius_tx	LFAradius_ty	LFAradius_tz	LFAulna_tx	LFAulna_ty	LFAulna_tz
      2.81000000	     -3.28201164	     -5.33252418	     -0.20275272	      0.91050095	      1.01855413	     -0.33520975	     29.33162372	      8.58043681	      1.53499184	    -15.65193727	     -9.20030685	    -11.06867065	     -0.27886770	     -4.14886878	    -76.91712577	    -11.12873857	     -3.56269855	     10.86625504	     -9.35748275	    -42.15736808	    -16.14488931	    -21.10825193	    110.85775069	     97.36960565	    -18.52359460	    -17.69567652	      6.71993326	    133.31587768	    102.25153048	      0.00000000	      0.00000000	      0.00000000	      0.00000000	      0.00000000	      0.00000000	      0.00000000	      0.00000000	      0.91736073	      1.04757487	     -0.45270202	      0.91714516	      1.06676510	     -0.22199858	      0.75654663	      1.09039822	     -0.38595994	      0.75510583	      1.09037294	     -0.29474867	      0.89922752	      0.80791889	     -0.15984231	      0.99715273	      0.77159992	     -0.17998713	      0.97076853	      0.65572793	     -0.19111927	      0.76002691	      0.83725971	     -0.48749931	      0.80071092	      0.71269591	     -0.48422949	      0.72490874	      0.63413649	     -0.46341581	      1.09398748	      0.43741288	     -0.23892322	      1.06491932	      0.37257142	     -0.19849555	      1.11257863	      0.25537334	     -0.24943913	      1.09368786	      0.13115222	     -0.23960573	      1.11460766	      0.16501949	     -0.31650154	      0.59651826	      0.47638158	     -0.42571688	      0.48985905	      0.56264366	     -0.42300675	      0.40596979	      0.48999131	     -0.38851619	      1.04084187	      0.11337125	     -0.31130651	      1.26317531	      0.10299826	     -0.28358469	      1.19369205	      0.06227155	     -0.22062875	      0.28107753	      0.58084278	     -0.30980673	      0.21160027	      0.37476662	     -0.36450628	      0.19659761	      0.44811751	     -0.41507003	      0.90187185	      1.57606396	     -0.45519927	      0.85541156	      1.53223683	     -0.15346477	      0.94348156	      1.48463015	     -0.27577275	      0.82885712	      1.57352658	     -0.31036758	      0.82451496	      1.53990630	     -0.48789041	      0.74597417	      1.42628258	     -0.07811268	      0.66510063	      1.40333455	     -0.12305464	      0.63469300	      1.35830949	     -0.08009127	      0.60903007	      1.29538733	     -0.04824305	      0.60916292	      1.27855863	     -0.13576206	      0.84609014	      1.46197455	     -0.55544739	      0.78390043	      1.38494761	     -0.56392559	      0.81979615	      1.34425123	     -0.61717256	      0.83211217	      1.26669719	     -0.64166135	      0.77176729	      1.24892175	     -0.57293957	      0.64157084	      1.22229526	     -0.04469970	      0.83550375	      1.17197497	     -0.06448830	      0.80280668	      1.11710736	     -0.04190823	      0.89001438	      1.22653081	     -0.57327330	      0.98393890	      1.30694895	     -0.44719722	      1.01051036	      1.24558568	     -0.46326094
      2.82000000	     -3.35618833	     -5.70322499	      0.16963935	      0.90782557	      1.01135521	     -0.33533400	     28.89763705	      9.19397018	      1.86777191	    -18.89217607	     -6.29457410	     -7.69378987	     -1.06274278	     -3.77349518	    -83.66112566	     -9.02455671	     -3.90683844	     11.51356546	     -8.61376693	    -40.11102109	    -16.94383124	    -20.51274814	    109.47540562	     97.39515606	    -19.50250089	    -18.66829580	      6.27145616	    131.36561270	    101.20308604	      0.00000000	      0.00000000	      0.00000000	      0.00000000	      0.00000000	      0.00000000	      0.00000000	      0.00000000	      0.91457438	      1.04004122	     -0.45255728	      0.91630213	      1.05926390	     -0.22216096	      0.75299247	      1.08271627	     -0.38354516	      0.75335038	      1.08372230	     -0.29359419	      0.89723770	      0.80169004	     -0.16241173	      0.99413982	      0.76688205	     -0.18443344	      0.96423350	      0.64870880	     -0.19279566	      0.76409293	      0.82581051	     -0.48684025	      0.81085440	      0.70319871	     -0.48587521	      0.73960063	      0.62163518	     -0.46480871	      1.07881320	      0.42418535	     -0.24122745	      1.04691000	      0.36046214	     -0.20063371	      1.08624841	      0.24080386	     -0.25196461	      1.06026966	      0.12052871	     -0.24149779	      1.08052194	      0.15119706	     -0.31934458	      0.61575037	      0.47002350	     -0.42864854	      0.51379224	      0.56213116	     -0.42662072	      0.42661139	      0.49470666	     -0.39141196	      1.00433026	      0.10467526	     -0.31379517	      1.22784497	      0.08580710	     -0.28684571	      1.15507645	      0.05389363	     -0.22153511	      0.30510370	      0.59276519	     -0.31311896	      0.23060925	      0.38867780	     -0.36840296	      0.21814550	      0.46234351	     -0.41914541	      0.90106380	      1.56919347	     -0.45458405	      0.85947229	      1.52244362	     -0.15165061	      0.94500082	      1.47659182	     -0.27601498	      0.82994520	      1.56593394	     -0.30854172	      0.82270441	      1.53345596	     -0.48553979	      0.75331585	      1.41357037	     -0.07315957	      0.67114869	      1.38952897	     -0.11539585	      0.64305433	      1.34381433	     -0.07164431	      0.61949695	      1.28042031	     -0.03908277	      0.61671442	      1.26351614	     -0.12580745	      0.84162792	      1.45790438	     -0.55507815	      0.77836237	      1.38252823	     -0.56466644	      0.81266577	      1.34211002	     -0.61936952	      0.82244205	      1.26470509	     -0.64573544	      0.76305114	      1.24705839	     -0.57636450	      0.65309027	      1.20750260	     -0.03645416	      0.84692671	      1.15837179	     -0.06114645	      0.81506317	      1.10349793	     -0.03741046	      0.88012277	      1.21894458	     -0.58067689	      0.98116976	      1.28996458	     -0.45454258	      1.00407910	      1.22808983	     -0.47328294
      2.83000000	     -3.72722870	     -6.09273553	      0.21144263	      0.90410035	      1.00305295	     -0.33447980	     29.26790341	     10.22330974	      2.32065351	    -23.83563172	     -0.77478467	     -3.68891383	     -1.88304602	     -3.55924130	    -90.23108395	     -7.22560918	     -4.09142685	     12.09287451	     -7.40732181	    -37.86897925	    -17.74752790	    -19.73380846	    107.96783100	     97.14619580	    -20.46550197	    -19.71764172	      5.63696642	    129.36920287	    100.24207172	      0.00000000	      0.00000000	      0.00000000	      0.00000000	      0.00000000	      0.00000000	      0.00000000	      0.00000000	      0.91162585	      1.03160204	     -0.45143776	      0.91483085	      1.05083285	     -0.22145242	      0.74922271	      1.07491220	     -0.38093752	      0.75006061	      1.07711679	     -0.29192467	      0.89359040	      0.79567327	     -0.16335148	      0.98995204	      0.76081336	     -0.18984290	      0.95825396	      0.64116812	     -0.19500804	      0.76898423	      0.81358623	     -0.48660808	      0.82216390	      0.69334711	     -0.48750508	      0.75585817	      0.60871305	     -0.46639253	      1.06231023	      0.41191893	     -0.24629877	      1.02713973	      0.34985514	     -0.20551762	      1.05490923	      0.22799233	     -0.25757795	      1.01947468	      0.11418033	     -0.24543048	      1.03854238	      0.14016515	     -0.32459743	      0.63761181	      0.46300634	     -0.43181070	      0.53984313	      0.55962881	     -0.43077537	      0.45002806	      0.49684530	     -0.39485300	      0.96000477	      0.09852266	     -0.31734911	      1.18513025	      0.07442935	     -0.28962472	      1.10958740	      0.05226854	     -0.22213861	      0.33150373	      0.60135806	     -0.31767359	      0.25356158	      0.39836213	     -0.37173221	      0.24256282	      0.47183083	     -0.42296203	      0.90006591	      1.56115085	     -0.45442668	      0.86380131	      1.51204647	     -0.15009842	      0.94677096	      1.46758164	     -0.27655680	      0.83111126	      1.55709429	     -0.30688938	      0.82078116	      1.52572594	     -0.48341596	      0.76150022	      1.39972052	     -0.06792629	      0.67811941	      1.37435456	     -0.10744124	      0.65259779	      1.32795155	     -0.06268724	      0.63130212	      1.26428111	     -0.02961193	      0.62453579	      1.24779551	     -0.11531757	      0.83644236	      1.45258150	     -0.55458650	      0.77218960	      1.37890280	     -0.56492325	      0.80436233	      1.33915659	     -0.62160125	      0.81159182	      1.26200359	     -0.64997790	      0.75355822	      1.24438749	     -0.57967282	      0.66612752	      1.19172319	     -0.02802019	      0.85972266	      1.14387325	     -0.05811605	      0.82880083	      1.08895448	     -0.03337080	      0.86901136	      1.21085653	     -0.58868873	      0.97718481	      1.27225229	     -0.46341405	      0.99641575	      1.21011947	     -0.48493920
      2.84000000	     -4.40748312	     -6.52871462	     -0.20271020	      0.89925585	      0.99402896	     -0.33270074	     30.50259181	     11.66286250	      2.72858323	    -30.16567280	      5.68524306	      0.96039409	     -2.73381279	     -3.53918498	    -96.51351942	     -5.88641518	     -4.16347526	     12.66116641	     -5.56241142	    -35.42410211	    -18.48375456	    -18.95496363	    106.34254217	     96.84806679	    -21.32185732	    -20.77173418	      4.90642675	    127.29808016	     99.57699549	      0.00000000	      0.00000000	      0.00000000	      0.00000000	      0.00000000	      0.00000000	      0.00000000	      0.00000000	      0.90848305	      1.02257632	     -0.44944024	      0.91178079	      1.04203282	     -0.22002523	      0.74523920	      1.06741167	     -0.37897392	      0.74575091	      1.07094147	     -0.29048052	      0.88817055	      0.79075346	     -0.16253979	      0.98430458	      0.75409525	     -0.19425164	      0.95352564	      0.63453235	     -0.19763909	      0.77458037	      0.80109536	     -0.48629940	      0.83442328	      0.68378211	     -0.48882856	      0.77373899	      0.59622005	     -0.46792382	      1.04509670	      0.40301804	     -0.25371812	      1.00609741	      0.34372151	     -0.21252222	      1.02074534	      0.22015520	     -0.26503101	      0.97417404	      0.11304175	     -0.25092184	      0.99297452	      0.13454774	     -0.33118218	      0.66223991	      0.45593497	     -0.43436841	      0.56779164	      0.55543464	     -0.43545939	      0.47599664	      0.49642145	     -0.39841858	      0.91159892	      0.09624211	     -0.32144803	      1.13799415	      0.06912640	     -0.29148256	      1.06077108	      0.05447741	     -0.22288697	      0.36008994	      0.60652879	     -0.32360844	      0.27969449	      0.40361962	     -0.37420054	      0.26964554	      0.47639020	     -0.42665407	      0.89893107	      1.55235814	     -0.45484358	      0.86823157	      1.50161539	     -0.14854722	      0.94897586	      1.45784370	     -0.27726884	      0.83250765	      1.54758424	     -0.30525165	      0.81876911	      1.51718717	     -0.48168882	      0.77046834	      1.38497629	     -0.06274641	      0.68611126	      1.35802308	     -0.09936028	      0.66349177	      1.31088966	     -0.05339650	      0.64466635	      1.24718614	     -0.02016561	      0.63394717	      1.23116755	     -0.10518127	      0.83071799	      1.44614369	     -0.55411393	      0.76547034	      1.37413853	     -0.56458827	      0.79477237	      1.33559730	     -0.62370916	      0.79952894	      1.25890067	     -0.65416555	      0.74343904	      1.24106237	     -0.58277864	      0.68068724	      1.17518674	     -0.01978254	      0.87386856	      1.12880193	     -0.05561642	      0.84401037	      1.07378708	     -0.02985724	      0.85664494	      1.20273367	     -0.59699330	      0.97176897	      1.25426938	     -0.47350018	      0.98745364	      1.19215398	     -0.49798556
